<mxfile host="app.diagrams.net" modified="2023-09-11T11:13:38.183Z" agent="Mozilla/5.0 (Windows NT 10.0; Win64; x64) AppleWebKit/537.36 (KHTML, like Gecko) Chrome/116.0.0.0 Safari/537.36" version="21.7.4" etag="oaPn3F7pKq6lMAVP6y2g" type="github">
  <diagram name="Sayfa -1" id="fp76JPy1v5nRKyki1zY_">
    <mxGraphModel>
      <root>
        <mxCell id="0" />
        <mxCell id="1" parent="0" />
      </root>
    </mxGraphModel>
  </diagram>
</mxfile>
